<?xml version="1.0" encoding="utf-8" ?><svg xmlns="http://www.w3.org/2000/svg" xmlns:xlink="http://www.w3.org/1999/xlink" width="1024" height="1024" viewBox="0 0 1024 1024"><path fill="#1a1f30" d="M513.064 304.076C517.946 306.401 526.642 311.575 531.596 314.409L566.951 334.797L615.284 362.441C624.438 367.623 633.98 372.698 642.948 378.135L643.025 525.491L556.761 574.114C542.525 582.055 525.995 590.649 512.257 599.051C509.694 598.528 492.42 588.388 489.151 586.471C454.124 565.932 418.24 546.527 383.264 525.945C384.135 510.048 383.352 487.537 383.336 470.974C383.403 439.344 383.305 407.714 383.041 376.085C404.307 364.677 425.592 352.663 446.752 340.998C468.976 328.907 491.081 316.599 513.064 304.076Z"/><path fill="#ffffff" d="M571.634 488.746C573.441 489.318 583.013 495.128 585.057 496.44C599.328 505.599 616.025 513.041 630.058 522.336C622.138 527.436 610.877 533.339 602.457 538.055L553.25 565.606C541.593 572.743 527.764 579.626 515.682 586.736C515.57 564.197 515.591 541.657 515.745 519.118C538.824 516.955 557.932 507.907 571.634 488.746Z"/><path fill="#ffffff" d="M454.467 490.407C454.8 490.439 455.134 490.47 455.468 490.502C460.312 495.341 465.272 500.74 470.641 504.774C483.131 514.161 493.23 516.833 507.978 519.192C507.612 541.429 508.042 564.248 507.888 586.595C497.059 581.3 482.338 572.337 471.669 566.236C448.329 553.463 418.629 536.763 396.356 522.69L454.467 490.407Z"/><path fill="#ffffff" d="M392.15 387.918C399.097 391.36 407.884 396.672 414.729 400.567L449.958 420.498C439.471 442.84 440.501 461.111 451.16 483.017C445.877 486.338 440.231 489.347 434.76 492.37C420.594 500.63 406.182 508.287 391.964 516.651C392.235 474.191 391.337 430.199 392.15 387.918Z"/><path fill="#ffffff" d="M507.415 317.001C508.426 318.046 507.968 374.664 507.963 380.821C484.533 383.927 467.101 392.883 453.977 413.16C441.961 407.014 429.139 399.459 417.305 392.761C409.622 388.41 401.978 383.991 394.374 379.504L507.415 317.001Z"/><path fill="#ffffff" d="M516.085 316.228C518.317 317.105 525.738 321.494 528.043 322.818L550.91 335.97L630.378 381.266C624.935 384.799 616.43 389.2 610.547 392.44L573.525 413.117C559.08 392.413 541.308 382.296 516.14 380.768C515.894 359.415 515.972 337.588 516.085 316.228Z"/><path fill="#ffffff" d="M633.518 388.527C634.612 389.657 634.119 502.887 634.163 514.614C621.27 507.583 607.547 499.309 594.772 491.891C588.661 488.484 582.572 485.039 576.504 481.555C577.411 479.875 578.251 478.16 579.023 476.415C588.101 456.088 585.38 439.708 577.781 419.871C594.858 409.543 615.968 398.356 633.518 388.527Z"/><path fill="#ffffff" d="M516.686 433.178C525.839 433.072 534.993 433.048 544.147 433.107C545.343 444.98 545.038 450.703 544.18 462.381C535.355 462.716 525.533 462.499 516.635 462.483C516.564 452.715 516.581 442.946 516.686 433.178Z"/><path fill="#ffffff" d="M482.262 432.94L508.006 433.008C508.028 436.813 508.573 461.004 507.383 462.541L481.577 462.548C480.808 451.722 480.867 443.868 482.262 432.94Z"/><path fill="#ffffff" d="M553.286 433.201C559.844 433.044 566.636 433.113 573.217 433.102C576.021 444.68 576.294 450.529 574.34 462.478L552.905 462.484C554.454 452.772 553.8 442.948 553.286 433.201Z"/><path fill="#ffffff" d="M516.894 388.057C530.11 392.992 538.705 411.943 542.41 424.378C534.111 424.592 524.905 424.378 516.533 424.366C516.548 414.505 516.082 397.118 516.894 388.057Z"/><path fill="#ffffff" d="M516.991 471.978L542.43 471.921C539.744 480.66 535.759 488.944 530.609 496.497C526.278 502.352 523.187 505.268 517.144 509.193C516.826 497.022 516.984 484.18 516.991 471.978Z"/><path fill="#ffffff" d="M454.039 433.011C460.338 432.88 466.947 432.991 473.272 433.009C472.225 440.03 471.844 444.952 472.107 452.114C472.219 455.171 472.654 459.671 472.411 462.529L452.642 462.535C451.153 450.396 451.713 444.666 454.039 433.011Z"/><path fill="#ffffff" d="M483.809 471.967L508.31 471.965C508.384 484.011 508.193 496.309 508.13 508.375C507.171 508.374 506.974 508.341 506.117 507.801C495.307 500.984 486.973 483.705 483.809 471.967Z"/><path fill="#ffffff" d="M507.457 388.449C508.596 389.643 508.044 420.229 508.033 424.242L484.654 424.395C484.176 424.004 484.457 424.303 484.134 423.278C486.037 414.937 492.485 402.016 498.249 395.49C500.196 393.286 504.999 390.076 507.457 388.449Z"/><path fill="#ffffff" d="M551.277 471.69C557.969 471.831 564.85 471.776 571.559 471.797C564.827 484.371 559.757 491.881 547.893 499.916C542.739 503.155 539.133 504.569 533.406 506.662C542.582 495.668 546.88 484.986 551.277 471.69Z"/><path fill="#ffffff" d="M455.873 471.897L474.519 471.893C479.284 486.297 483.005 494.855 492.684 506.604C475.116 501.114 463.323 488.27 455.873 471.897Z"/><path fill="#ffffff" d="M536.863 393.857C550.099 397.195 563.671 412.871 569.988 424.367C563.829 424.482 557.215 424.347 551.019 424.334C547.431 411.071 544.432 405.012 536.863 393.857Z"/><path fill="#ffffff" d="M487.679 394.451L488.338 394.723C487 397.124 485.116 399.315 483.636 401.963C479.631 409.128 477.04 416.453 474.698 424.288L458.556 424.405L457.797 423.959C458.089 422.112 459.705 420.015 460.741 418.409C467.614 407.751 476.744 400.546 487.679 394.451Z"/><path fill="#1a1f30" d="M308.344 636.445C316.8 636.249 325.596 636.52 334.029 636.347C352.348 635.811 370.753 636.124 384.746 649.991C403.736 668.81 403.143 701.375 385.061 720.262C370.426 734.595 353.757 734.217 334.881 734.194L308.495 734.17L308.344 636.445Z"/><path fill="#ffffff" d="M336.021 661.067C344.868 660.985 356.064 659.952 363.086 666.121C373.87 675.595 373.368 692.953 364.485 703.33C355.648 711.121 347.157 709.746 336.067 709.61C336.406 693.88 336.051 676.897 336.021 661.067Z"/><path fill="#1a1f30" d="M525.58 636.25C535.358 636.128 545.139 635.471 554.814 638.122C574.163 643.425 581.155 662.897 575.885 680.976C573.212 690.141 567.675 695.702 559.243 700.162C565.22 710.849 573.468 723.205 579.969 734.139L549.509 734.334L544.906 726.77C541.096 719.894 535.742 711.732 531.55 705.018L522.51 705.02L522.434 734.11L494.97 734.206L494.591 636.387L525.58 636.25Z"/><path fill="#ffffff" d="M522.377 660.5C528.778 660.489 540.896 659.077 546.147 662.793C551.521 666.596 550.98 674.258 547.314 679.362C540.782 684.175 530.709 682.644 522.268 682.543L522.377 660.5Z"/><path fill="#1a1f30" d="M609.855 636.25L663.059 636.204L663.101 660.088L615.449 660.201L615.409 673.961C629.778 674.028 644.146 673.996 658.514 673.865L658.551 696.174L615.554 696.114C615.553 699.202 614.803 708.407 616.292 710.384L617.875 710.527L663.86 710.489L663.943 734.052L588.471 734.213L588.143 636.305L609.855 636.25Z"/><path fill="#1a1f30" d="M706.422 635.864L733.481 635.875C746.153 668.531 759.976 701.495 773.128 734.041C763.32 734.026 753.513 734.11 743.707 734.295C741.833 729.837 740.032 722.887 737.373 718.911C737.002 718.356 736.07 718.532 735.125 718.484L701.895 718.519C699.807 723.64 697.839 728.81 695.993 734.024L667.352 734.107C671.353 722.85 676.576 710.403 681.029 699.256L706.422 635.864Z"/><path fill="#ffffff" d="M719.602 670.802C721.123 672.291 728.261 692.549 729.458 695.765L719.899 695.883L710.108 695.96C713.204 687.548 716.369 679.162 719.602 670.802Z"/><path fill="#1a1f30" d="M410.204 636.229L483.808 636.312C483.666 644.148 483.827 652.297 483.88 660.157L436.45 660.263L436.399 673.89L479.201 673.923L479.097 696.06L437.928 696.077C437.123 696.157 437.565 696.014 436.738 696.802C436.281 700.59 436.493 706.655 436.514 710.638C451.949 710.207 468.929 710.548 484.484 710.539L484.345 734.15L409.455 734.328L409.327 667.259C409.331 658.222 408.772 645.525 409.268 636.823L410.204 636.229Z"/><path fill="#1a1f30" d="M213.356 634.208C229.137 634.324 241.427 637.897 253.894 647.917C249.706 654.995 245.376 661.987 240.906 668.889C235.579 664.468 208.498 650.21 205.231 663.678C203.837 669.424 219.366 672.538 223.465 673.687C231.884 676.047 242.148 678.78 248.717 685.122C259.344 695.853 257.531 716.439 246.474 726.289C236.412 735.251 223.81 736.189 211.014 735.958C195.349 734.149 184.467 729.944 172.78 719.344C177.294 712.688 181.878 706.08 186.529 699.519C195.483 706.954 205.334 712.535 217.24 712.63C221.494 712.664 228.594 711.806 228.537 706.297C225.356 699.837 210.748 697.264 203.241 695.561C178.831 690.025 168.877 666.214 184.071 645.921C190.206 637.729 202.865 634.807 213.356 634.208Z"/><path fill="#1a1f30" d="M779.348 636.367C788.483 636.302 797.617 636.294 806.752 636.341C806.926 660.813 806.923 685.286 806.742 709.758C821.114 709.9 835.487 709.891 849.859 709.731C849.971 717.775 849.974 725.82 849.868 733.864C847.959 734.386 831.453 734.192 828.005 734.188L779.442 734.214L779.348 636.367Z"/><path fill="#1a1f30" d="M265.506 636.414L293.489 636.361L293.553 734.025L265.555 734.186L265.506 636.414Z"/></svg>