<?xml version="1.0" encoding="utf-8" ?><svg xmlns="http://www.w3.org/2000/svg" xmlns:xlink="http://www.w3.org/1999/xlink" width="1024" height="1024" viewBox="0 0 1024 1024"><path fill="#090909" d="M0 0L1024 0L1024 1024L0 1024L0 0Z"/><path fill="#F97316" d="M511.28 176.976C516.346 178.072 568.151 208.526 576.666 213.372L746.013 309.434L746.056 575.009L512.202 707.767C509.628 707.916 298.914 587.039 277.97 574.94L277.937 309.562C284.888 305.121 294.629 300.037 301.966 295.877L349.153 269.016L511.28 176.976Z"/><path fill="#090909" d="M733.512 320.503L733.822 320.787C735.148 325.535 734.415 351.796 734.361 358.664C733.823 426.992 735.292 495.612 734.331 563.908C727.716 561.033 719.687 556.123 713.256 552.5C702.268 546.383 691.317 540.199 680.403 533.95L672.405 529.292C689.75 500.572 696.775 466.39 695.148 433.064C693.723 403.878 685.73 380.215 672.999 354.349C693.035 342.827 713.207 331.544 733.512 320.503Z"/><path fill="#090909" d="M289.661 320.149C292.455 321.275 300.438 326.399 303.911 328.207C319.759 336.46 335.4 346.485 351.196 354.624C345.552 365.288 340.991 375.058 337.145 386.546C325.008 423.612 325.36 463.636 338.145 500.483C341.825 510.983 346.207 519.486 351.136 529.379L343.75 533.97C328.018 543.179 305.606 556.255 289.757 564.086C289.14 526.926 289.68 488.542 289.61 451.251C289.529 407.836 289.122 363.503 289.661 320.149Z"/><path fill="#090909" d="M357.318 539.47C359.353 542.017 361.639 546.347 363.808 549.309C395.909 593.154 451.773 622.438 505.994 623.421L506.098 691.038C493.56 684.154 481.09 677.147 468.69 670.018C453.763 660.963 436.3 651.615 420.992 642.966L342.23 597.979C327.315 589.444 313.239 581.812 298.373 572.889C301.383 571.334 304.436 569.633 307.342 567.885C323.722 558.038 340.998 549.367 357.318 539.47Z"/><path fill="#090909" d="M666.456 539.912C671.951 543.224 679.332 546.895 685.161 550.148L725.547 572.77C714.32 578.623 702.855 586.187 691.585 592.447L556.035 669.439C543.258 676.584 530.657 684.117 517.979 691.186L518.042 623.005C574.639 621.667 637.245 589.244 666.456 539.912Z"/><path fill="#090909" d="M504.969 194.011L505.592 194.076C506.203 195.276 506.149 253.955 506.179 260.478C449.425 260.337 386.985 296.208 357.219 344.413L320.192 323.756C312.905 319.756 305.665 315.673 298.472 311.507C308.003 305.677 317.346 300.732 327.025 295.244C342.799 286.092 358.646 277.065 374.564 268.165L504.969 194.011Z"/><path fill="#090909" d="M517.766 193.875C523.834 196.723 535.446 203.821 541.601 207.298C556.664 215.618 571.66 224.058 586.588 232.618L725.225 311.469C718.431 315.602 711.556 319.599 704.603 323.458C691.925 330.325 679.307 337.304 666.752 344.394C635.307 294.941 576.65 261.535 518.011 260.424L517.766 193.875Z"/><path fill="#090909" d="M658.8 356.056C659.372 355.909 659.455 356.036 660.128 356.179C662.31 358.978 664.503 364.359 666.169 367.799C677.256 390.705 681.085 410.056 683.664 435.013L629.125 434.965L610.965 434.838C610.793 412.259 607.268 391.297 602.268 369.296C622.473 366.109 639.29 361.431 658.8 356.056Z"/><path fill="#090909" d="M364.042 355.124C375.829 360.367 408.423 367.003 421.808 370.024C415.793 389.35 413.397 414.98 412.831 435.046L398.75 435.001L340.373 434.827C343.848 402.696 348.512 384.148 364.042 355.124Z"/><path fill="#090909" d="M611.01 447.24C635.202 447.314 659.395 447.242 683.586 447.027C683.115 470.208 676.166 493.908 667.194 515.128L662.759 524.945C646.523 519.401 620.112 512.047 602.916 510.376C605.934 497.532 608.442 485.401 609.64 472.242C610.408 463.801 610.381 455.584 611.01 447.24Z"/><path fill="#090909" d="M351.623 447.243C371.921 447.315 392.22 447.266 412.518 447.095C413.187 469.252 414.747 488.805 420.111 510.226C414.019 511.734 407.077 513.061 400.883 514.381C388.385 517.335 373.924 520.956 361.932 525.429C348.828 500.402 341.561 475.644 340.419 447.289L351.623 447.243Z"/><path fill="#090909" d="M432.991 371.815C445.257 373.161 457.742 374.783 470.03 375.648C481.883 376.483 494.098 376.791 505.994 377.207L506.057 435.045L496.375 435.016L424.217 435.013C424.987 412.517 427.9 393.902 432.991 371.815Z"/><path fill="#090909" d="M588.098 371.689C589.15 371.482 588.726 371.515 589.844 371.836C590.93 374.315 591.994 379.776 592.726 382.671C597.172 400.265 598.32 416.904 599.262 434.91L529.75 434.998L517.991 434.999C517.849 415.654 517.82 396.309 517.904 376.963C541.406 377.097 564.88 375.333 588.098 371.689Z"/><path fill="#090909" d="M430.541 447.25C455.693 447.106 480.846 447.146 505.998 447.372L506.049 502.532L494.877 502.893C476.059 503.119 450.261 505.603 431.774 508.746C427.189 488.565 424.627 467.978 424.126 447.289L430.541 447.25Z"/><path fill="#090909" d="M498.634 514.715L505.923 514.479L506.003 611.023C488.622 604.334 481.18 599.537 469.065 585.658C453.051 566.526 442.868 544.076 434.756 520.68C452.074 517 481.016 515.553 498.634 514.715Z"/><path fill="#090909" d="M578.756 447.241L599.493 446.985C599.271 466.296 596.242 490.031 591.05 508.596C578.012 505.778 558.549 504.199 545.086 503.42C537.015 502.51 526.11 502.502 517.987 502.481L518.055 447.295C538.288 447.392 558.522 447.374 578.756 447.241Z"/><path fill="#090909" d="M517.976 514.492C541.527 514.906 565.031 516.758 588.355 520.04C582.986 538.976 569.786 564.199 558.079 579.932C546.343 594.916 535.865 604.462 517.785 611.345L517.976 514.492Z"/><path fill="#090909" d="M518.032 272.934C521.041 273.845 523.984 274.961 526.841 276.274C558.85 290.772 575.2 328.351 587.076 359.195L581.618 359.998C557.731 362.751 542.45 364.421 517.999 364.559C517.699 334.617 517.621 302.839 518.032 272.934Z"/><path fill="#090909" d="M504.333 273.51L505.349 273.838C505.841 276.362 505.551 297.104 505.548 300.529L505.723 365.072C483.076 364.539 465.229 363.485 442.617 360.616C440.691 360.422 438.691 360.118 436.766 359.857C451.77 322.248 463.817 289.936 504.333 273.51Z"/><path fill="#090909" d="M599.881 521.662C621.166 525.842 635.17 528.869 656.038 535.01C632.854 569.01 593.278 596.646 553.294 606.327C552.273 606.505 549.404 607.39 548.837 607.165L548.787 607.01C549.326 606.192 549.8 605.885 550.627 605.357C573.084 584.021 592.472 551.87 599.881 521.662Z"/><path fill="#150202" d="M550.627 605.357C551.846 606.258 551.741 606.186 553.294 606.327C552.273 606.505 549.404 607.39 548.837 607.165L548.787 607.01C549.326 606.192 549.8 605.885 550.627 605.357Z"/><path fill="#090909" d="M420.937 523.192C421.703 523.06 423.602 522.695 423.866 523.581C433.071 554.463 448.12 587.425 474.463 607.331C469.073 605.318 462.595 603.685 456.987 601.807C448.945 599.114 443.052 596.472 435.506 592.902C409.986 580.148 384.794 559.765 368.561 536.134C381.795 530.992 406.833 525.165 420.937 523.192Z"/><path fill="#090909" d="M473.832 276.515L474.566 276.502C474.68 277.352 471.51 279.484 470.642 280.249C467.441 283.071 464.401 286.07 461.536 289.232C443.795 308.765 432.887 333.765 424.963 358.625C411.199 354.948 397.551 352.424 383.107 348.41L371.273 345.068C391.709 316.868 415.723 298.179 448.014 284.865C455.927 281.602 465.519 279.003 473.832 276.515Z"/><path fill="#090909" d="M550.83 276.341C554.634 276.91 568.455 282.052 572.435 283.711C606.987 298.112 630.195 315.478 652.756 345.13C649.825 346.155 646.149 347.08 643.109 347.925C630.144 351.851 612.288 355.13 598.958 357.262C587.78 324.53 576.281 300.514 550.83 276.341Z"/><path fill="#F97316" d="M98.6714 755.217C107.935 754.667 120.828 754.987 130.305 754.977L189.356 754.846C185.514 761.582 182.702 765.973 177.886 772.033L128.783 772.064C119.657 772.079 107.7 771.787 98.8384 772.555C94.6631 775.144 90.9839 779.329 94.7504 784.382C98.725 789.714 109.696 788.515 116.008 788.51L146.44 788.503C151.779 788.505 160.384 788.264 165.374 788.955C168.802 789.419 172.128 790.462 175.206 792.041C188.524 799.022 191.751 815.31 185.182 828.042C181.633 834.921 174.142 838.615 167.109 840.691C161.902 841.492 142.656 841.053 136.635 841.042L76.1689 841.044C79.4937 835.551 83.2659 829.885 86.7631 824.461L139.007 824.466C146.391 824.457 154.034 824.769 161.384 824.504C172.137 824.115 176.202 809.278 165.069 805.691C160.812 804.32 153.21 804.803 148.496 804.824L114.602 804.796C105.792 804.763 93.3322 805.901 86.2467 800.469C68.1891 786.625 76.6594 758.219 98.6714 755.217Z"/><path fill="#F97316" d="M488.486 754.946C504.833 754.74 521.648 755.149 538.068 755.006C545.308 754.944 562.798 754.627 568.929 755.486C572.282 755.989 575.502 757.153 578.402 758.91C595.822 769.321 596.932 792.706 581.706 805.636C577.608 809.116 572.18 810.144 567.085 811.327L600.44 841.092L574.722 840.963C563.869 832.389 553.019 820.472 541.877 812.271C541.158 811.741 539.576 811.783 538.625 811.816L506.042 811.586L506.009 841.157L488.537 840.971L488.498 795.335C508.779 795.705 529.228 795.202 549.524 795.424C555.486 795.489 562.668 795.674 568.496 794.859C575.849 789.96 578.211 781.258 571.367 774.808C569.864 773.388 567.976 772.445 565.939 772.094C563.28 771.645 545.9 771.952 542.567 771.962L488.474 772.047L488.486 754.946Z"/><path fill="#F97316" d="M237.762 754.922L289.225 754.876C297.924 754.856 316.53 754.194 324.421 756.114C331.304 757.861 337.618 761.355 342.754 766.26C366.578 789.01 357.37 830.335 325.655 839.613C317.293 842.059 301.022 841.153 291.792 841.19L245.743 841.321L245.846 823.051L245.902 788.477L263.36 788.541C263.166 800.648 263.15 812.758 263.311 824.866L295.598 824.58C309.838 824.556 326.352 826.984 335.111 812.823C337.802 808.472 338.739 802.685 338.826 797.61C338.885 790.67 336.125 784.003 331.177 779.136C321.877 769.942 306.096 771.966 293.873 771.984L250.168 772.048C246.001 766.597 241.791 760.525 237.762 754.922Z"/><path fill="#F97316" d="M769.314 755.003C777.142 754.87 785.262 754.968 793.115 754.955C800.044 765.311 807.039 778.037 813.333 788.763L844.31 841.274L823.617 841.134C820.542 835.508 817.37 829.935 814.102 824.418L770.965 824.519C767.883 819.603 764.843 814.443 761.83 809.467C776.221 809.758 791.558 810.105 805.92 809.808L802.265 803.306C795.213 791.245 787.834 779.12 781.214 766.838C779.519 769.762 777.822 772.736 776.061 775.617C762.816 797.28 750.778 819.598 737.097 841L717.947 841.014C735.409 812.897 751.437 783.037 769.314 755.003Z"/><path fill="#F97316" d="M372.94 788.497C403.828 789.208 436.646 788.67 467.641 788.582L467.597 805.006L390.465 804.841L390.499 824.838L408.912 824.872C429.236 824.89 449.796 824.573 470.081 824.768L470.073 841.066L372.95 841.014L372.94 788.497Z"/><path fill="#F97316" d="M612.736 788.72C643.68 789.023 674.683 788.454 705.649 788.89L705.536 804.928L629.059 804.881C628.958 811.542 629.017 818.354 629.002 825.028L649.75 825.021L708.437 824.868L708.447 841.079L611.214 841.07C611.901 823.832 611.145 806.218 611.762 789.321L612.736 788.72Z"/><path fill="#F97316" d="M857.976 754.892C863.609 754.802 869.243 754.802 874.875 754.894L874.958 824.516L939.93 824.442C943.535 830.094 947.23 835.688 951.013 841.221C920.531 840.686 888.544 840.944 858.023 841.172L857.976 754.892Z"/><path fill="#F97316" d="M373.077 754.897L478.087 754.931C476.016 758.399 473.746 761.884 471.579 765.303L466.957 771.927C436.187 772.465 403.956 772.131 373.092 772.16L373.077 754.897Z"/><path fill="#F97316" d="M611.685 754.977C645.955 754.511 681.37 754.983 715.739 755.016C713.509 758.144 710.909 762.502 708.798 765.816C707.44 767.848 705.779 769.985 704.309 771.963L611.663 772.114L611.685 754.977Z"/><path fill="#F97316" d="M206.453 754.863L223.735 754.846C223.899 783.546 223.844 812.247 223.57 840.946C219.422 841.39 210.971 841.169 206.443 841.16L206.453 754.863Z"/></svg>