<?xml version="1.0" encoding="utf-8" ?><svg xmlns="http://www.w3.org/2000/svg" xmlns:xlink="http://www.w3.org/1999/xlink" width="1024" height="1024" viewBox="0 0 1024 1024"><path fill="#E9E8D5" d="M511.636 303.399C513.875 303.441 515.841 304.671 517.812 305.77C547.97 322.591 577.834 340.245 607.918 357.149L661.314 387.356C671.022 392.811 682.704 398.761 691.981 404.597L692.029 611.398C686.811 615.008 677.577 619.946 671.802 623.22L636.049 643.47C595.053 666.725 552.973 690.013 512.345 713.597C509.42 713.379 485.876 699.244 481.153 696.529L429.181 666.965C405.88 653.982 382.69 640.801 359.613 627.422C351.031 622.42 340.806 617.067 332.663 611.73C333.129 605.639 332.846 594.88 332.79 588.55L332.496 547.988L332.407 404.261C351.318 392.481 375.84 379.615 395.713 368.49L511.636 303.399Z"/><path fill="#161923" d="M593.298 560.738C595.188 561.371 616.494 574.202 619.941 576.171L655.988 596.298C661.623 599.467 669.169 603.483 674.368 607.074C664.865 613.337 648.703 621.866 638.387 627.732C615.417 640.897 592.376 653.938 569.266 666.855C554.02 675.529 532.252 688.584 516.874 696.133C516.257 685.935 516.661 672.005 516.662 661.512L516.73 602.644C519.693 602.388 522.649 602.065 525.597 601.676C555.228 597.544 575.614 584.291 593.298 560.738Z"/><path fill="#161923" d="M344.735 420.022C351.708 423.175 365.753 431.62 372.734 435.56L424.77 464.704C409.229 496.559 411.424 521.455 426.431 552.656L404.044 565.439C385.961 575.88 362.985 589.561 344.744 599.2C344.149 558.405 344.459 517.21 344.408 476.377L344.316 440.482C344.304 435.543 344.057 424.62 344.735 420.022Z"/><path fill="#161923" d="M432.101 562.071C434.069 563.598 440.224 571.55 443.119 574.231C461.514 591.265 480.573 600.2 505.52 602.741L505.504 696.482C488.228 686.759 471.017 676.92 453.874 666.965C447.972 663.254 438.323 658.235 431.99 654.681C412.82 644.088 393.801 633.224 374.94 622.09C367.616 617.763 357.905 612.401 351.021 607.704L432.101 562.071Z"/><path fill="#161923" d="M504.653 321.519L505.113 321.651C506.029 323.361 505.924 400.436 505.685 409.395C473.726 411.433 447.354 428.822 430.005 455.095C413.348 446.178 395.7 435.844 379.253 426.401C369.875 421.18 357.648 414.486 348.754 408.609C354.624 404.691 364.726 399.395 371.118 395.84L413.122 372.552C442.922 356.003 474.701 337.081 504.653 321.519Z"/><path fill="#161923" d="M517.421 320.526C523.385 323.113 532.933 328.844 538.859 332.196L577.703 354.282C609.238 372.238 643.805 390.848 674.757 409.56C666.067 414.022 655.201 420.537 646.539 425.436L596.033 454.064C592.104 448.534 588.352 443.404 583.63 438.503C566.17 420.419 542.288 409.943 517.158 409.343C517.072 380.864 516.46 348.802 517.421 320.526Z"/><path fill="#161923" d="M678.64 419.951L679.219 420.22C679.783 422.633 679.624 431.254 679.656 434.106C679.789 444.882 679.868 455.659 679.891 466.436L680.011 595.875C673.428 592.784 665.269 587.919 658.906 584.293L624.565 564.557C616.549 559.891 608.497 555.29 600.407 550.754C602.521 546.566 604.426 542.277 606.115 537.901C615.935 511.719 612.175 488.224 601.036 463.47C604.316 461.493 608.009 459.408 611.398 457.602C633.954 445.579 656.044 431.778 678.64 419.951Z"/><path fill="#161923" d="M517.859 482.798C530.262 482.659 542.991 482.827 555.42 482.846C556.472 497.839 556.577 507.93 555.035 522.912L554.889 523.42C553.036 524.584 522.99 524.05 517.899 524.041C517.587 510.779 517.673 496.082 517.859 482.798Z"/><path fill="#161923" d="M469.704 482.483L505.561 482.496L505.683 510.256C505.692 512.827 506.409 522.753 504.477 523.937L469.158 524.008C467.301 510.509 468.293 495.975 469.704 482.483Z"/><path fill="#161923" d="M568 482.944L595.556 482.785C600.02 498.198 599.939 508.679 597.184 524.147L567.462 524.023C569.319 511.2 568.852 495.855 568 482.944Z"/><path fill="#161923" d="M517.903 419.655C535.978 426.309 548.279 452.937 552.938 470.323C544.33 470.948 526.953 470.322 517.844 470.196C517.738 453.349 517.758 436.502 517.903 419.655Z"/><path fill="#161923" d="M430.575 482.503L457.169 482.529C455.732 491.641 455.206 500.872 455.599 510.088C455.731 513.319 456.567 520.934 456.284 523.623L455.118 524.003L428.478 524.078C425.265 509.406 426.722 496.745 430.575 482.503Z"/><path fill="#161923" d="M518.061 537.015L552.524 537.008C549.379 550.048 543.607 561.806 535.881 572.698C531.052 579.629 525.336 584.246 518.348 588.805C517.973 571.544 517.878 554.279 518.061 537.015Z"/><path fill="#161923" d="M472.11 536.983C483.415 537.043 494.72 537.035 506.024 536.958C506.007 553.674 506.285 571.291 505.78 587.909C490.886 583.277 475.131 551.163 472.11 536.983Z"/><path fill="#161923" d="M504.552 420.951L505.148 421.06C506.065 422.525 505.606 465.05 505.52 470.254L473.576 470.37L472.793 470.025C472.464 468.806 472.398 469.192 472.832 467.886C479.271 448.471 486.342 431.217 504.552 420.951Z"/><path fill="#161923" d="M564.811 536.956L593.649 536.91C585.303 553.417 575.634 565.492 560.432 576.119C553.769 580.257 547.984 583.15 540.54 585.515C553.005 571.037 559.875 555.295 564.811 536.956Z"/><path fill="#161923" d="M432.767 536.765C441.413 537.01 450.447 536.881 459.123 536.878C465.64 558.831 470.415 567.811 483.904 585.604C460.977 579.265 441.863 558.043 432.767 536.765Z"/><path fill="#161923" d="M545.76 427.791C563.684 431.721 582.658 455.15 591.156 470.476L565.002 470.444C560.075 452.736 556.114 443.292 545.76 427.791Z"/><path fill="#161923" d="M477.4 429.06C477.842 430.02 474.661 434.3 473.83 435.696C467.271 446.697 463.116 458.432 459.18 470.512L436.14 470.432L435.601 469.737C435.672 469.477 435.82 468.745 435.926 468.552C445.174 451.6 459.888 437.103 477.4 429.06Z"/></svg>