<?xml version="1.0" encoding="utf-8" ?><svg xmlns="http://www.w3.org/2000/svg" xmlns:xlink="http://www.w3.org/1999/xlink" width="1024" height="1024" viewBox="0 0 1024 1024"><path fill="#ffffff" d="M0 0L1024 0L1024 1024L0 1024L0 0Z"/><path fill="#F8761B" d="M510.521 208.387C513.145 208.878 543.653 226.418 548.307 229.019C619.875 269.005 690.869 310.365 762.791 349.706C762.465 360.356 762.733 372.612 762.734 383.396L762.747 448.783L762.872 631.215C735.944 645.638 708.486 661.581 681.822 676.614L514.178 771.339L511.066 773.094C502.628 768.028 492.462 762.669 483.749 757.772L432.783 728.907L260.369 631.4L260.367 349.863L459.435 237.242C476.349 227.607 493.764 218.146 510.521 208.387Z"/><path fill="#ffffff" d="M749.765 360.984C750.631 362.122 750.491 362.535 750.495 364.292C750.549 392.663 750.522 421.155 750.527 449.517L750.527 620.091C730.609 609.436 710.838 598.507 691.221 587.307L681.414 581.757C687.741 570.998 692.886 559.587 696.759 547.723C713.543 495.788 706.387 446.249 681.996 398.426C702.252 386.197 728.864 372.121 749.765 360.984Z"/><path fill="#ffffff" d="M272.417 360.336C279.643 363.935 288.896 369.385 296.056 373.344L341.306 398.366C308.261 458.965 308.725 521.613 341.5 582.099C339.125 583.635 335.793 585.406 333.27 586.837C313.921 598.349 292.345 609.626 272.525 620.585L272.417 360.336Z"/><path fill="#ffffff" d="M675.406 592.797C683.522 596.894 693.072 602.498 701.143 606.948C714.398 614.186 727.595 621.529 740.733 628.976C736.017 632.075 727.152 636.731 721.927 639.707L683.863 661.371L559.746 731.716C545.588 739.408 531.638 747.889 517.377 755.545C517.245 731.068 517.255 706.591 517.408 682.114C579.251 681.885 642.996 645.246 675.406 592.797Z"/><path fill="#ffffff" d="M347.282 592.965C348.552 593.153 349.909 595.795 350.739 597.06C355.946 605.121 361.828 612.725 368.322 619.791C403.524 658.693 452.832 679.685 504.819 682.262L504.857 755.451C492.735 749.342 476.932 739.705 464.816 732.815C404.671 698.6 342.751 662.675 282.155 629.486C302.702 617.159 326.162 604.955 347.282 592.965Z"/><path fill="#ffffff" d="M504.079 225.975C505.467 228.007 504.822 289.054 504.85 296.814C494.406 296.946 483.998 298.063 473.763 300.148C421.381 310.824 376.636 343.395 347.376 387.736C337.587 381.341 317.352 370.981 306.393 364.953C298.424 360.582 289.989 356.117 282.243 351.433L504.079 225.975Z"/><path fill="#ffffff" d="M517.298 225.977C537.374 236.113 561.251 250.653 581.273 261.865L741.003 351.694C733.46 355.942 725.889 360.143 718.293 364.296C704.486 372.284 689.843 380 675.837 387.913C644.319 335.389 578.671 297.693 517.457 296.901L517.298 225.977Z"/><path fill="#ffffff" d="M668.009 399.606C670.272 401.428 673.257 408.395 674.719 411.3C686.509 434.727 691.084 457.362 693.366 483.307C673.908 483.719 653.758 483.458 634.25 483.453L617.129 483.442C616.633 459.971 613.436 436.635 607.602 413.894C628.144 410.599 648.043 405.278 668.009 399.606Z"/><path fill="#ffffff" d="M354.818 399.019C370.862 405.293 398.41 410.795 415.36 414.211C408.874 436.597 406.86 460.342 405.579 483.482L388.875 483.501L329.43 483.445C332.385 450.634 338.318 427.916 354.818 399.019Z"/><path fill="#ffffff" d="M329.536 496.022C354.889 495.824 380.242 495.796 405.595 495.938C406.28 519.302 408.355 539.979 413.754 562.679C409.796 563.222 405.355 564.175 401.391 564.932C385.967 568.131 367.607 572.513 352.834 577.97C337.852 550.92 331.309 526.601 329.536 496.022Z"/><path fill="#ffffff" d="M593.325 416.206C594.77 416.051 594.196 415.826 595.192 416.576C601.639 437.579 603.957 461.545 604.89 483.381C580.49 483.856 554.752 483.453 530.25 483.451L517.395 483.454C517.063 463.196 517.331 442.312 517.366 422.011C543.748 422.208 567.37 419.662 593.325 416.206Z"/><path fill="#ffffff" d="M639.256 495.746C657.282 495.651 675.308 495.684 693.333 495.847C691.022 528.183 685.279 548.167 670.746 577.122L665.121 575.3C648.731 570.135 625.664 564.388 608.591 562.252C614.575 537.537 616.244 521.031 617.339 495.826L639.256 495.746Z"/><path fill="#ffffff" d="M427.304 415.85C433.055 417.015 440.754 417.708 446.627 418.416C466.016 420.752 485.327 421.499 504.82 422.035C505.236 441.866 504.897 463.512 504.79 483.434L495.75 483.477L417.806 483.472C418.285 459.484 421.697 438.984 427.304 415.85Z"/><path fill="#ffffff" d="M546.28 495.749C565.859 495.648 585.438 495.656 605.016 495.771C604.739 517.583 601.831 539.282 596.356 560.397C591.292 559.503 586.203 558.753 581.096 558.15C561.052 555.13 537.628 554.281 517.448 554.225C517.305 534.783 517.279 515.34 517.369 495.898L546.28 495.749Z"/><path fill="#ffffff" d="M517.569 566.726C540.391 567.149 570.988 568.492 593.374 572.762C585.141 596.715 575.62 616.529 560.649 637.009C549.381 652.641 535.471 663.048 517.434 669.463L517.33 599.797C517.338 591.002 516.752 574.817 517.569 566.726Z"/><path fill="#ffffff" d="M417.8 496.016C446.808 495.807 475.816 495.782 504.824 495.944C504.907 515.367 504.871 534.789 504.714 554.212L500.125 554.396C475.263 554.545 450.453 556.666 425.926 560.737C420.495 536.313 418.59 521.206 417.8 496.016Z"/><path fill="#ffffff" d="M490.292 567.219C494.779 566.929 500.128 566.98 504.682 566.909L504.737 669.017C488.796 664.188 479.509 656.942 468.186 645.335C449.448 624.993 438.103 598.909 429.06 573.16C447.919 569.535 471.191 568.036 490.292 567.219Z"/><path fill="#ffffff" d="M517.452 310.076C557.708 321.292 578.531 367.363 591.785 403.253C589.796 403.69 587.644 403.958 585.619 404.255C583.763 404.74 574.046 405.748 571.908 405.98C553.821 407.92 535.657 409.074 517.469 409.44L517.452 310.076Z"/><path fill="#ffffff" d="M503.866 310.551C504.056 310.784 504.245 311.017 504.434 311.251C504.87 337.469 504.685 386.182 504.661 409.454C482.86 409.277 458.153 406.898 436.605 404.339C435.377 404.079 432.301 403.793 430.918 403.621C443.94 365.871 463.551 324.617 503.866 310.551Z"/><path fill="#ffffff" d="M605.392 574.312C625.319 577.722 645.022 582.336 664.392 588.126C641.185 617.189 627.865 632.162 593.671 650.225C579.901 657.28 565.247 662.457 550.1 665.617C576.664 644.519 595.75 606.283 605.392 574.312Z"/><path fill="#ffffff" d="M416.576 575.228C417.614 575.971 419.184 581.432 419.707 583.117C422.031 590.606 424.871 597.575 427.911 604.769C438.132 628.962 451.127 648.194 471.317 665.386C456.609 661.235 444.072 656.867 430.338 650.288C400.68 635.199 378.519 616.272 359.467 588.996C374.663 583.897 400.642 577.279 416.576 575.228Z"/><path fill="#ffffff" d="M470.21 314.049L471.213 314.066C470.972 314.831 461.321 323.753 459.921 325.254C455.851 329.625 452.053 334.242 448.547 339.078C434.503 358.443 426.159 379.57 418.647 402.031C404.043 399.219 389.556 395.831 375.22 391.874C370.871 390.799 366.305 389.344 361.991 388.054C386.63 350.752 427.45 325.351 470.21 314.049Z"/><path fill="#ffffff" d="M552.336 314.448C558.05 314.909 567.746 318.866 573.305 320.984C609.774 334.875 638.16 357.147 661.193 388.522C658.161 389.473 654.935 390.347 651.868 391.227C636.774 395.678 619.823 398.752 604.338 401.776C593.093 368.445 579.357 338.275 552.336 314.448Z"/></svg>